<svg width="30" height="30" viewBox="0 0 30 30" fill="none" xmlns="http://www.w3.org/2000/svg">
<path d="M15 30C23.2843 30 30 23.2843 30 15C30 6.71573 23.2843 0 15 0C6.71573 0 0 6.71573 0 15C0 23.2843 6.71573 30 15 30Z" fill="#F1F4F7"/>
<path d="M11.512 9.59598H8.952C7.88 9.59598 7 10.4496 7 11.5244V19.5385C7 20.5975 7.88 21.4669 8.952 21.4669H21.048C22.12 21.4669 23 20.5975 23 19.5385V11.5244C23 10.4654 22.12 9.59598 21.048 9.59598H18.488V8.99532C18.488 7.93627 17.608 7.06689 16.536 7.06689H13.464C12.392 7.06689 11.512 7.93627 11.512 8.99532V9.59598ZM21.928 19.5227C21.928 19.9969 21.528 20.392 21.048 20.392H8.952C8.472 20.392 8.072 19.9969 8.072 19.5227V14.4329H21.928V19.5227ZM12.584 8.99532C12.584 8.52112 12.984 8.12595 13.464 8.12595H16.52C17 8.12595 17.4 8.52112 17.4 8.99532V9.59598H12.584V8.99532ZM21.048 10.655C21.528 10.655 21.928 11.0502 21.928 11.5244V13.3896H8.072V11.5244C8.072 11.0502 8.472 10.655 8.952 10.655H21.048Z" fill="#DADEE2"/>
</svg>
